<?xml version="1.0" encoding="UTF-8" standalone="no"?>
<!-- Created with Inkscape (http://www.inkscape.org/) -->

<svg
   width="3.8546011in"
   height="1.2495463in"
   viewBox="0 0 97.906869 31.738476"
   version="1.1"
   id="svg5"
   sodipodi:docname="name_subset_path.svg"
   inkscape:version="1.1.2 (0a00cf5339, 2022-02-04)"
   xmlns:inkscape="http://www.inkscape.org/namespaces/inkscape"
   xmlns:sodipodi="http://sodipodi.sourceforge.net/DTD/sodipodi-0.dtd"
   xmlns="http://www.w3.org/2000/svg"
   xmlns:svg="http://www.w3.org/2000/svg">
  <sodipodi:namedview
     id="namedview9883"
     pagecolor="#ffffff"
     bordercolor="#666666"
     borderopacity="1.0"
     inkscape:pageshadow="2"
     inkscape:pageopacity="0.0"
     inkscape:pagecheckerboard="0"
     inkscape:document-units="in"
     showgrid="false"
     inkscape:zoom="2.030704"
     inkscape:cx="192.29785"
     inkscape:cy="42.103626"
     inkscape:window-width="1920"
     inkscape:window-height="1016"
     inkscape:window-x="0"
     inkscape:window-y="27"
     inkscape:window-maximized="1"
     inkscape:current-layer="g8135"
     fit-margin-top="0"
     fit-margin-left="0"
     fit-margin-right="0"
     fit-margin-bottom="0" />
  <defs
     id="defs2" />
  <g
     id="layer1"
     transform="translate(-1.5443294,-9.5307622)">
    <path
       id="path8174"
       style="fill:#ffffff;fill-opacity:0;stroke-width:0.189217"
       d="M 1.5443294,18.935198 H 99.451197 V 35.885286 H 1.5443294 Z" />
    <g
       transform="matrix(0.18921732,0,-0.04021938,0.18921732,-1.4181327,34.715922)"
       id="g8135">
      <path
         style="fill:none;stroke:#000000;stroke-width:6.67049;stroke-linecap:butt;stroke-linejoin:miter;stroke-miterlimit:4;stroke-dasharray:none;stroke-opacity:1"
         d="m 105.49759,-32.671697 c -0.18154,-3.420737 -0.36334,-6.843681 -1.90668,-10.201646 -1.54334,-3.357966 -4.450148,-6.650982 -9.175418,-8.128831 -4.725263,-1.477849 -11.269007,-1.138214 -19.620323,4.124387 -8.351315,5.262601 -18.508205,15.448062 -25.584491,25.284651 -7.076296,9.836591 -11.071556,19.3232773 -13.460387,26.1294623 -2.38883,6.8061837 -3.171348,10.9312537 -2.683583,15.0436667 0.48777,4.112413 2.24442,8.211274 5.500822,9.80159 3.2564,1.590316 8.012015,0.674941 13.137211,-1.984722 5.125207,-2.659662 10.621389,-7.063724 18.404301,-15.44946 7.7829,-8.3857337 17.852984,-20.7535777 23.00053,-26.753792 5.14754,-6.000215 5.3708,-5.635029 2.96602,-0.632447 -2.4048,5.002578 -7.435763,14.64421927 -9.752854,21.5415323 -2.317107,6.8973117 -1.921,11.0487977 0.16808,14.2309877 2.089071,3.182188 5.868834,5.395912 10.304564,5.432193 4.435708,0.03628 9.528848,-2.102992 14.932918,-6.370694 5.40409,-4.267702 11.12021,-10.6643747 16.6002,-18.1257267 5.48002,-7.461352 10.72415,-15.9878433 16.23925,-27.8863063 5.51509,-11.898464 11.30124,-27.169462 18.32579,-41.674289 7.02452,-14.504826 15.28739,-28.242954 12.92116,-22.351339 -2.36623,5.891615 -15.36155,31.412775 -23.41898,49.184805 -8.05743,17.772027 -11.17699,27.794434 -12.68299,37.0181713 -1.50598,9.223739 -1.39883,17.6480077 0.21863,23.3288317 1.61746,5.680825 4.74313,8.618311 10.63842,9.251394 5.89531,0.633084 14.56078,-1.035874 21.34042,-3.989817 6.77962,-2.953945 11.6749,-7.193041 15.92631,-11.730311 4.25141,-4.5372707 7.85941,-9.3732007 11.48544,-15.2845627 3.62605,-5.911359 7.27032,-12.8986013 11.71691,-24.1942943 4.44658,-11.295692 9.69549,-26.900285 12.15832,-34.55695 2.46282,-7.656664 2.13899,-7.364031 1.267,-5.083141 -0.872,2.280889 -2.29162,6.548672 -1.76311,10.186715 0.52854,3.638045 3.00294,6.645308 6.34269,9.536592 3.33974,2.891285 7.54427,5.667249 10.12482,9.024677 2.58058,3.357429 3.53898,7.295453 2.95553,12.554787 -0.58347,5.259331 -2.70781,11.841167 -4.61096,17.5851013 -1.90313,5.743934 -3.58513,10.650037 -4.81139,15.308854 -1.22627,4.6588147 -1.99697,9.0699107 -1.77941,11.9380817 0.21754,2.868172 1.42104,4.192922 3.86212,5.07729 2.44106,0.884368 6.11939,1.330278 9.71647,0.933773 3.59706,-0.396506 7.11396,-1.634721 11.34845,-4.048413 4.2345,-2.413692 9.18748,-6.003023 14.095,-10.574368 4.9075,-4.5713457 9.77011,-10.12514873 16.45324,-20.2755827 6.68313,-10.1504333 15.18708,-24.8980363 18.8605,-32.3705653 3.6734,-7.472527 2.51351,-7.669724 -1.32383,-0.47352 -3.83735,7.196203 -10.3493,21.785246 -13.78491,31.926628 -3.43563,10.14138127 -3.79524,15.8341153 -3.53585,20.483819 0.2594,4.649704 1.13707,8.255875 3.63241,10.72795 2.49533,2.472074 6.60642,3.811702 11.27838,3.659705 4.67197,-0.151997 9.90605,-1.794382 14.79735,-4.543079 4.89129,-2.748697 9.44093,-6.603971 15.47931,-13.9828317 6.03837,-7.378863 13.56601,-18.2819173 19.35818,-26.8334703 5.79218,-8.551554 9.84893,-14.751659 14.64606,-19.356124 4.79714,-4.604464 10.33355,-7.612356 15.19733,-9.133961 4.86378,-1.521604 9.05357,-1.557296 12.00912,-0.595574 2.95552,0.961722 4.67695,2.918618 5.30082,5.5522 0.62387,2.633582 0.1523,5.944319 -1.21082,9.31844 -1.36321,3.374119 -3.6181,6.812895 -4.36012,8.704549 -0.74205,1.891652 0.0259,2.235562 1.45278,-0.358619 1.42692,-2.594179 3.51583,-8.126468 3.82353,-12.508279 0.30769,-4.38181 -1.1674,-7.614532 -4.95274,-9.204231 -3.78531,-1.589699 -9.88175,-1.533814 -16.70911,2.151307 -6.82736,3.68512 -14.3836,10.999496 -19.14977,16.991645 -4.76618,5.992148 -6.74182,10.66101 -8.72838,15.82688 -1.98655,5.1658723 -3.98402,10.8285563 -4.4947,17.1617693 -0.51066,6.3332127 0.46471,13.3358027 2.78869,18.2872117 2.32397,4.951408 5.99456,7.852141 11.40581,8.870777 5.41127,1.018636 12.56366,0.15722 18.96532,-1.87186 6.40164,-2.029078 12.05367,-5.225645 17.85304,-10.275548 5.79937,-5.049904 11.74692,-11.9536947 18.16081,-23.9555407 6.41387,-12.0018453 13.29437,-29.1026533 23.02338,-49.8478143 9.72903,-20.74516 22.30652,-45.134407 30.29388,-58.501737 7.98735,-13.36734 11.38371,-15.71166 14.13114,-16.11389 2.74746,-0.40223 4.84403,1.13558 5.31406,5.02514 0.47001,3.88956 -0.68384,10.13093 -3.14009,16.7523 -2.45624,6.62136 -6.21479,13.623631 -10.88476,20.058122 -4.66999,6.434493 -10.25175,12.301938 -15.37298,16.64872 -5.12119,4.346782 -9.78251,7.173342 -13.49303,10.151652 -3.71051,2.97831 -6.46951,6.107883 -9.81792,13.404011 -3.34842,7.296128 -7.286,18.757733 -9.5695,27.771899 -2.28349,9.014165 -2.91317,15.5802473 -3.17151,22.5669433 -0.25837,6.986695 -0.14557,14.3937537 0.64806,17.5381927 0.79368,3.144437 2.26801,2.02864 6.3817,-5.464563 4.1137,-7.4932037 10.86749,-21.3649347 16.96946,-31.976384 6.10199,-10.611446 11.552,-17.962102 17.37591,-22.548303 5.8239,-4.586201 12.02004,-6.407203 17.60421,-6.073916 5.58416,0.333285 10.55515,2.81919 12.4071,7.121883 1.85194,4.302692 0.58764,10.421822 -2.40221,15.311968 -2.98983,4.890144 -7.70587,8.553141 -12.53755,11.054016 -4.83167,2.5008753 -9.78014,3.8397953 -12.20531,4.7437063 -2.42515,0.903912 -2.32609,1.369986 -1.33348,5.154979 0.9926,3.784994 2.87859,10.888872 5.58766,16.4346847 2.70904,5.545813 6.23981,9.533836 9.98849,11.458453 3.74866,1.924616 7.71519,1.78813 11.76938,0.404944 4.05418,-1.383185 8.19756,-4.012803 12.46972,-8.32271 4.27214,-4.309907 8.67389,-10.3008127 11.6558,-15.5808107 2.9819,-5.279999 4.54413,-9.849967 6.10676,-14.4211663"
         id="path9507" />
    </g>
  </g>
</svg>
