<?xml version="1.0" encoding="UTF-8" standalone="no"?>
<!-- Created with Inkscape (http://www.inkscape.org/) -->

<svg
   width="4in"
   height="2in"
   viewBox="0 0 101.6 50.800001"
   version="1.1"
   id="svg5"
   sodipodi:docname="name_subset.svg"
   inkscape:version="1.1.2 (0a00cf5339, 2022-02-04)"
   xmlns:inkscape="http://www.inkscape.org/namespaces/inkscape"
   xmlns:sodipodi="http://sodipodi.sourceforge.net/DTD/sodipodi-0.dtd"
   xmlns="http://www.w3.org/2000/svg"
   xmlns:svg="http://www.w3.org/2000/svg">
  <sodipodi:namedview
     id="namedview9883"
     pagecolor="#ffffff"
     bordercolor="#666666"
     borderopacity="1.0"
     inkscape:pageshadow="2"
     inkscape:pageopacity="0.0"
     inkscape:pagecheckerboard="0"
     inkscape:document-units="in"
     showgrid="false"
     inkscape:zoom="2.030704"
     inkscape:cx="198.20713"
     inkscape:cy="78.051751"
     inkscape:window-width="1920"
     inkscape:window-height="1016"
     inkscape:window-x="0"
     inkscape:window-y="27"
     inkscape:window-maximized="1"
     inkscape:current-layer="g8135" />
  <defs
     id="defs2" />
  <g
     id="layer1">
    <path
       id="path8174"
       style="fill:#ffffff;fill-opacity:0;stroke-width:0.189217"
       d="M 1.5443294,18.935198 H 99.451197 V 35.885286 H 1.5443294 Z" />
    <g
       transform="matrix(0.18921732,0,-0.04021938,0.18921732,-1.4181327,34.715922)"
       id="g8135">
      <path
         style="fill:none;stroke:#000000;stroke-width:3.17096;stroke-linecap:butt;stroke-linejoin:miter;stroke-miterlimit:4;stroke-dasharray:none;stroke-opacity:1"
         d="m 112.22678,-31.796815 c -0.0863,-1.62612 -0.17272,-3.253289 -0.90638,-4.849569 -0.73366,-1.59628 -2.11547,-3.161685 -4.36173,-3.864212 -2.24625,-0.702527 -5.35696,-0.541074 -9.326938,1.960615 -3.969974,2.501689 -8.798264,7.343564 -12.16213,12.019595 -3.363865,4.676032 -5.263098,9.18573 -6.398679,12.421194 -1.135581,3.235464 -1.507568,5.1964034 -1.275698,7.1513262 0.231871,1.9549228 1.066932,3.9034032 2.614932,4.6593937 1.548001,0.7559906 3.80868,0.3208475 6.245053,-0.9434796 2.436373,-1.264327 5.049099,-3.357891 8.748871,-7.3442283 3.699771,-3.986337 8.486799,-9.865654 10.933789,-12.717983 2.44699,-2.852329 2.55313,-2.67873 1.40996,-0.300647 -1.14317,2.378082 -3.53474,6.96144 -4.63622,10.240224 -1.10149,3.278784 -0.91319,5.2522808 0.0799,6.7650019 0.99308,1.5127211 2.78987,2.5650617 4.89849,2.5823084 2.10861,0.017247 4.52974,-0.9997013 7.09868,-3.028444 2.56895,-2.0287427 5.28623,-5.0695373 7.89126,-8.6164493 2.60504,-3.546912 5.09795,-7.60016 7.71967,-13.256347 2.62171,-5.656187 5.37228,-12.91558 8.71155,-19.810757 3.33926,-6.895177 7.26719,-13.425887 6.14235,-10.625183 -1.12484,2.800704 -7.30244,14.932729 -11.13271,23.38104 -3.83027,8.44831 -5.31322,13.212674 -6.02913,17.597373 -0.7159,4.3847 -0.66496,8.3893548 0.10393,11.0898552 0.7689,2.7005005 2.25475,4.0968968 5.0572,4.3978463 2.80246,0.3009495 6.92178,-0.4924248 10.14462,-1.8966446 3.22284,-1.4042198 5.54991,-3.4193642 7.57091,-5.5762519 2.021,-2.156888 3.73614,-4.45575 5.45985,-7.265841 1.72372,-2.81009 3.4561,-6.131624 5.56988,-11.501271 2.11378,-5.369647 4.60896,-12.787621 5.77972,-16.427379 1.17075,-3.639758 1.01681,-3.500648 0.60229,-2.416379 -0.41452,1.084269 -1.08937,3.11305 -0.83813,4.842471 0.25125,1.729422 1.42751,3.158988 3.01513,4.533421 1.58762,1.374434 3.58633,2.694047 4.81305,4.290072 1.22673,1.596025 1.68233,3.468048 1.40497,5.968184 -0.27736,2.500135 -1.28721,5.62895 -2.19191,8.359451 -0.9047,2.730501 -1.70427,5.062721 -2.2872,7.277388 -0.58293,2.214667 -0.9493,4.3115747 -0.84588,5.6750209 0.10341,1.3634463 0.67552,1.9931946 1.83594,2.4135975 1.16041,0.4204029 2.90898,0.6323758 4.61893,0.4438885 1.70994,-0.1884873 3.38177,-0.7770989 5.39473,-1.9244986 2.01296,-1.1473997 4.36746,-2.8536648 6.70035,-5.0267503 2.33289,-2.173086 4.64443,-4.813204 7.8214,-9.638428 3.17697,-4.825224 7.2195,-11.83581 8.96574,-15.388035 1.74623,-3.552224 1.19485,-3.645966 -0.62931,-0.225098 -1.82417,3.420868 -4.91976,10.356079 -6.55295,15.177 -1.6332,4.820921 -1.80415,7.527082 -1.68084,9.737418 0.12331,2.2103352 0.54053,3.9246051 1.72674,5.0997582 1.18621,1.1751531 3.1405,1.8119734 5.36142,1.7397187 2.22092,-0.072255 4.70905,-0.8529976 7.03423,-2.1596491 2.32518,-1.3066514 4.48795,-3.1393373 7.35842,-6.6470358 2.87047,-3.507699 6.44889,-8.690697 9.20232,-12.755859 2.75344,-4.065163 4.6819,-7.012514 6.96232,-9.201344 2.28042,-2.18883 4.91227,-3.618695 7.22437,-4.342022 2.3121,-0.723327 4.30381,-0.740294 5.70879,-0.283119 1.40497,0.457175 2.22329,1.387427 2.51986,2.639356 0.29657,1.251929 0.0724,2.825758 -0.57559,4.429718 -0.64803,1.603959 -1.71994,3.238654 -2.07268,4.137892 -0.35275,0.899237 0.0123,1.062722 0.69061,-0.170477 0.67832,-1.233198 1.67133,-3.863089 1.8176,-5.946076 0.14627,-2.082986 -0.55495,-3.619729 -2.35439,-4.375426 -1.79943,-0.755697 -4.6975,-0.729131 -7.94303,1.022669 -3.24553,1.7518 -6.83755,5.228844 -9.10325,8.077339 -2.2657,2.848495 -3.20487,5.067937 -4.14922,7.523643 -0.94435,2.455707 -1.89389,5.147584 -2.13665,8.158211 -0.24275,3.010627 0.22091,6.3394569 1.32566,8.6932139 1.10475,2.3537569 2.84964,3.7326817 5.422,4.216912 2.57236,0.4842303 5.9724,0.074738 9.01556,-0.8898278 3.04316,-0.9645655 5.72997,-2.4841212 8.48682,-4.8847001 2.75686,-2.4005789 5.58415,-5.682442 8.63313,-11.387774 3.04897,-5.705332 6.31976,-13.834564 10.94465,-23.696216 4.6249,-9.861652 10.60388,-21.455598 14.40084,-27.810044 3.79696,-6.354447 5.41149,-7.46887 6.71754,-7.660078 1.30606,-0.191208 2.30271,0.539823 2.52615,2.388807 0.22343,1.848984 -0.32508,4.815955 -1.49271,7.963562 -1.16763,3.147606 -2.95433,6.476282 -5.1743,9.535054 -2.21998,3.058773 -4.87339,5.847987 -7.30787,7.914322 -2.43447,2.066335 -4.65033,3.41 -6.4142,4.825803 -1.76387,1.415803 -3.07542,2.903512 -4.66716,6.371881 -1.59174,3.468369 -3.46355,8.916886 -4.54906,13.201961 -1.08551,4.285075 -1.38484,7.406401 -1.50765,10.727675 -0.12282,3.321274 -0.0692,6.8423763 0.30807,8.3371519 0.37729,1.4947756 1.07815,0.9643572 3.03368,-2.5976958 1.95553,-3.5620531 5.16609,-10.1562751 8.06679,-15.2006521 2.90071,-5.044376 5.49149,-8.538666 8.26001,-10.718814 2.76851,-2.180148 5.71398,-3.0458 8.36853,-2.887365 2.65455,0.158434 5.01762,1.340162 5.89798,3.385538 0.88036,2.045376 0.27935,4.954234 -1.14194,7.278869 -1.42128,2.324634 -3.66315,4.065917 -5.95999,5.254761 -2.29684,1.188844 -4.6492,1.825328 -5.80205,2.255021 -1.15285,0.429694 -1.10576,0.651252 -0.6339,2.450529 0.47185,1.799277 1.3684,5.176256 2.65621,7.8125758 1.2878,2.6363197 2.96623,4.5321111 4.74824,5.4470186 1.78201,0.9149075 3.66758,0.8500259 5.59483,0.1924993 1.92724,-0.6575267 3.89688,-1.9075714 5.92774,-3.9563771 2.03085,-2.0488057 4.12332,-4.8967096 5.54083,-7.4066686 1.41751,-2.50996 2.16015,-4.682391 2.90298,-6.855407"
         id="path9507" />
    </g>
  </g>
</svg>
