<?xml version="1.0" encoding="UTF-8" standalone="no"?>
<!-- Created with Inkscape (http://www.inkscape.org/) -->

<svg
   width="4in"
   height="2in"
   viewBox="0 0 101.6 50.800001"
   version="1.1"
   id="svg5"
   inkscape:version="1.1.2 (0a00cf5339, 2022-02-04)"
   sodipodi:docname="name_subset_archive.svg"
   xmlns:inkscape="http://www.inkscape.org/namespaces/inkscape"
   xmlns:sodipodi="http://sodipodi.sourceforge.net/DTD/sodipodi-0.dtd"
   xmlns="http://www.w3.org/2000/svg"
   xmlns:svg="http://www.w3.org/2000/svg">
  <sodipodi:namedview
     id="namedview7"
     pagecolor="#ffffff"
     bordercolor="#666666"
     borderopacity="1.0"
     inkscape:pageshadow="2"
     inkscape:pageopacity="0.0"
     inkscape:pagecheckerboard="0"
     inkscape:document-units="mm"
     showgrid="false"
     units="in"
     width="4in"
     inkscape:zoom="2.7209973"
     inkscape:cx="170.34195"
     inkscape:cy="90.591783"
     inkscape:window-width="1920"
     inkscape:window-height="1016"
     inkscape:window-x="0"
     inkscape:window-y="27"
     inkscape:window-maximized="1"
     inkscape:current-layer="g8135" />
  <defs
     id="defs2">
    <inkscape:path-effect
       effect="bspline"
       id="path-effect9509"
       is_visible="true"
       lpeversion="1"
       weight="33.333333"
       steps="1"
       helper_size="0"
       apply_no_weight="true"
       apply_with_weight="true"
       only_selected="false" />
  </defs>
  <g
     inkscape:label="Layer 1"
     inkscape:groupmode="layer"
     id="layer1">
    <g
       transform="matrix(0.18921732,0,0,0.18921732,-50.425551,26.201143)"
       id="g8137">
      <path
         id="path8174"
         transform="translate(274.6571,-38.400002)"
         style="fill:#ffffff;fill-opacity:0"
         d="M 0,0 H 517.43079 V 89.580002 H 0 Z" />
      <g
         transform="matrix(1,0,-0.21255656,1,259.0007,45)"
         id="g8135">
        <path
           fill="#000000"
           fill-opacity="1"
           d="m -9.7387099,-104.63489 v 0 q -2.7699991,0 -5.2099991,-1.56 -2.440002,-1.55 -2.440002,-3.99 v 0 q 0,-1.22 0.550001,-2.94 0.56,-1.72 1.000001,-3.17 v 0 q 3.549999,-10.88 6.6599991,-20.31 3.11,-9.44 6.22,-18.32 3.10000002,-8.88 6.6,-17.76 3.5,-8.88 7.8299999,-18.53 v 0 q -4.2199999,0.77 -7.4999999,2.27 -3.26999998,1.5 -5.27,2.67 -2,1.16 -2.66,1.16 v 0 q -0.45,0 -1.28,-0.5 -0.83,-0.5 -1.5,-1.22 -0.659999,-0.72 -0.659999,-1.27 v 0 q 2.879999,-1.23 6.81999902,-2.67 3.93999998,-1.44 8.48999998,-2.44 4.5499999,-1 9.2199999,-1 v 0 q 4.88,0 9.930001,1.33 5.05,1.33 9.27,4.05 4.22,2.72 6.77,6.72 2.55,4 2.55,9.32 v 0 q 0,5.78 -2.55,9.94 -2.55,4.16 -6.77,6.99 -4.22,2.83 -9.1,4.55 -4.890001,1.72 -9.720001,2.67 -4.82,0.94 -8.5999999,1.22 -3.77,0.27 -5.55,0.27 v 0 h -1.11 q -3.33,11.44 -6.38,22.54 -3.05,11.1 -5.61,19.98 z m 12.44,-44.29 v 0 q 6.1,-0.33 12.3699999,-2 6.27,-1.66 11.490001,-4.83 5.22,-3.16 8.44,-7.88 3.22,-4.72 3.22,-11.04 v 0 q 0,-6 -2.83,-9.77 -2.83,-3.78 -7.44,-5.61 -4.610001,-1.83 -9.820001,-1.83 v 0 q -4.11,8.1 -8,19.43 -3.8799999,11.32 -7.4299999,23.53 z m 33.3000009,39.85 v 0 q -3.44,0 -5.83,-2.28 -2.39,-2.27 -2.39,-6.94 v 0 q 0,-3.99 1.78,-8.6 1.77,-4.6 4.88,-9.1 3.11,-4.5 7.05,-8.21 3.94,-3.72 8.33,-5.94 4.38,-2.22 8.71,-2.22 v 0 q 4.33,0 7.21,2.27 2.89,2.28 2.89,6.05 v 0 q 0,2.78 -1.5,3.78 -1.5,1 -3.94,1 v 0 q 0.22,-0.89 0.39,-1.95 0.17,-1.05 0.17,-1.94 v 0 q 0,-2.55 -1.22,-4.38 -1.23,-1.84 -4.22,-1.84 v 0 q -3.11,0 -6.33,2.17 -3.22,2.16 -6.22,5.77 -2.99,3.61 -5.32,7.83 -2.33,4.21 -3.67,8.32 -1.33,4.11 -1.33,7.33 v 0 q 0,4.33 3,4.33 v 0 q 2.55,0 5.55,-2.39 3,-2.39 6.16,-6.11 3.16,-3.71 6.05,-7.71 2.88,-4 5.1,-7.33 v 0 q 0.45,-0.66 0.56,-0.66 v 0 q 0.67,0.11 1.72,0.44 1.05,0.34 1.83,0.89 0.78,0.56 0.78,1.44 v 0 q 0,1 -1,2.72 -1,1.72 -2.22,3.94 -1.22,2.22 -2.22,4.5 -1,2.27 -1,4.27 v 0 q 0,1.67 0.89,3.28 0.89,1.61 2.88,1.61 v 0 q 3,0 7.89,-4.39 4.88,-4.38 9.87,-13.15 v 0 l 1.11,1.11 q -2.33,5.99 -5.99,10.54 -3.66,4.55 -7.83,7.11 -4.16,2.55 -8.15,2.55 v 0 q -4.11,0 -6.05,-2.44 -1.95,-2.44 -1.95,-5.33 v 0 q 0,-0.67 0.12,-1.5 0.11,-0.83 0.22,-1.72 v 0 q -4.78,6.44 -8.72,9.66 -3.94,3.22 -8.04,3.22 z m 52.5,-0.11 v 0 q -4.77,0 -7.33,-2.78 -2.55,-2.77 -2.55,-8.21 v 0 q 0,-4.89 1.83,-12.05 1.83,-7.16 4.61,-14.7 v 0 q -1.11,-0.23 -2.11,-0.39 -1,-0.17 -1.89,-0.5 v 0 -2 q 0.89,0.11 2.11,0.22 1.22,0.11 2.78,0.22 v 0 q 2.33,-5.99 4.99,-11.6 2.67,-5.6 5.27,-9.99 2.60999,-4.38 4.999989,-6.99 2.39,-2.61 4.05,-2.61 v 0 q 0.89,0 1.61,0.61 0.72,0.61 0.72,1.84 v 0 q 0,1.88 -2.33,6.16 -2.33,4.27 -5.769999,10.15 -3.43999,5.89 -6.65999,12.77 v 0 q 1,0 2.05,0 1.06,0 2.05999,0 v 0 q 3.659999,0 7.709999,-0.11 4.05,-0.11 8.16,-0.56 v 0 2 q -6.11,0.67 -10.94,1 -4.819999,0.33 -8.599989,0.33 v 0 q -0.44,0 -0.83,0 -0.39,0 -0.83,0 v 0 q -2.56,5.88 -4.33,12.1 -1.78,6.22 -1.78,12.1 v 0 q 0,4.77 1.45,6.83 1.44,2.05 4.77,2.05 v 0 q 5.76999,0 11.319989,-5.11 5.55,-5.1 9.77,-13.87 v 0 l 1.44,1.11 q -2.66,6.21 -6.71,11.21 -4.06,4.99 -8.939999,7.88 -4.87999,2.89 -10.09999,2.89 z m 41.399999,-2.22 v 0 q -3.77001,0 -5.94,-2 -2.16,-2 -2.16,-5.22 v 0 q 0,-3.33 1.54999,-6.99 1.56,-3.66 3.06,-7.27 1.49001,-3.61 1.49001,-6.5 v 0 q 0,-3.55 -2.05001,-5.27 -2.05,-1.72 -4.16,-3.16 v 0 q -2.54999,6.55 -5.33,12.43 -2.77,5.88 -4.55,8.88 v 0 l -1,-1.89 q 1.55,-2.88 4.05,-8.43 2.5,-5.55 4.94,-12.66 v 0 q -1.11,-1.11 -1.11,-2.66 v 0 q 0,-3.33 1.89001,-5.44 1.88999,-2.11 2.76999,-2.11 v 0 q 1.22,0 1.39,1.06 0.17,1.05 0.17,1.61 v 0 q 0,0.55 -0.61,2.16 -0.61,1.61 -0.61,1.94 v 0 q 0,1.56 1.72,2.83 1.72,1.28 3.94,2.89 2.22,1.61 3.94,3.88 1.72,2.28 1.72,5.83 v 0 q 0,3.33 -1.39,6.77 -1.39,3.44 -2.77,6.55 -1.38999,3.11 -1.38999,5.44 v 0 q 0,2 1,2.66 1,0.67 2.32999,0.67 v 0 q 2.66001,0 5.49,-1.66 2.83001,-1.67 5.5,-4.22 2.66001,-2.56 4.77001,-5.39 2.11,-2.83 3.11,-5.27 v 0 l 1.44,1.11 q -2.11,4.66 -5.77,9.16 -3.66,4.49 -8.16,7.38 -4.49,2.89 -9.27,2.89 z m 27.42,0 v 0 q -4.33001,0 -6.44,-2.72 -2.11,-2.72 -2.11,-6.61 v 0 q 0,-2.55 0.94999,-6.44 0.94,-3.88 2.49001,-8.15 1.56,-4.28 3.61,-8.05 2.05,-3.78 4.39,-6.16 2.32999,-2.39 4.55,-2.39 v 0 q 1,0 1.71999,0.61 0.72001,0.61 0.72001,1.83 v 0 q 0,1.34 -1.72001,4.33 -1.71999,3 -4.05,6.88 -2.33,3.89 -4.06,8.16 -1.71999,4.28 -1.71999,8.16 v 0 q 0,4 1.33999,5.33 1.33001,1.33 4.1,1.33 v 0 q 3.78,0 8.05001,-3.77 4.26999,-3.78 9.05,-13.21 v 0 l 1,1.11 q -3.22001,9.54 -9.27001,14.65 -6.05,5.11 -12.59999,5.11 z m 13.32,-50.84 v 0 q -1.78001,0 -3.16001,-0.89 -1.39,-0.89 -1.39,-2.77 v 0 q 0,-2.34 2.72001,-4.06 2.71999,-1.72 5.38,-1.72 v 0 q 1.66999,0 2.66999,0.78 0.99,0.78 0.99,2.66 v 0 q 0,2.11 -2.26999,4.06 -2.28001,1.94 -4.94,1.94 z m 17.32,54.17 v 0 q -5.33001,0 -8.88,-3.56 -3.56,-3.55 -3.56,-10.65 v 0 q 0,-5.55 2.16999,-10.82 2.16,-5.28 5.71001,-9.49 3.56,-4.22 7.88999,-6.72 4.32,-2.5 8.54,-2.5 v 0 q 4.55,0 6.22,2.67 1.66,2.66 1.66,5.55 v 0 q 0,3.22 -1.5,5.66 -1.49,2.44 -4.05,2.44 v 0 q -1.88,0 -3.22,-1.67 v 0 q 1.67,-0.88 2.89,-3.6 1.22,-2.72 1.22,-5.16 v 0 q 0,-1.34 -0.5,-2.06 -0.5,-0.72 -1.94,-0.72 v 0 q -3,0 -6.16,2.66 -3.16,2.67 -5.88,6.89 -2.72,4.21 -4.44,8.88 -1.72,4.66 -1.72,8.77 v 0 q 0,3.44 1.66,6.32 1.67,2.89 6.44,2.89 v 0 q 4.44,0 8.93,-2.44 4.5,-2.45 8.38,-7 3.89,-4.55 6.22,-10.65 v 0 l 1.44,1.11 q -2.55,6.66 -6.99,11.93 -4.44,5.27 -9.77,8.27 -5.33,3 -10.75999,3 z m 56.94,-2 v 0 q -3.11001,0 -5.33001,-2.11 -2.22,-2.11 -3.5,-5.33 -1.27,-3.22 -1.88,-6.6 -0.61,-3.39 -0.61,-5.94 v 0 q 1.22,0 3.55,-0.61 2.33001,-0.61 4.77001,-1.89 2.43999,-1.28 4.15999,-3.33 1.72,-2.05 1.72,-4.83 v 0 q 0,-2.33 -1.66,-3.66 -1.66999,-1.33 -3.89,-1.33 v 0 q -3.44,0 -6.43,2.38 -3,2.39 -5.39,6.22 -2.38,3.83 -4.26999,8.16 -1.89,4.33 -3.22001,8.21 -1.33,3.89 -2.21999,6.44 v 0 q -0.67001,2 -1.89,2.72 -1.22001,0.72 -2.55,0.72 v 0 q -1.89,0 -2.72001,-1.55 -0.82999,-1.56 -1,-3.94 -0.15999,-2.39 -0.15999,-4.94 v 0 q 0,-5.77 1.88,-13.32 1.89,-7.55 5.05,-15.71 3.16999,-8.16 6.94,-15.82 3.77,-7.66 7.55,-13.87 3.77,-6.22 6.99,-9.88 3.22,-3.66 5.22,-3.66 v 0 q 1.55,0 2.5,2.11 0.94,2.1 0.94,5.1 v 0 q 0,3.78 -1.67,8.49 -1.66,4.72 -4.71,9.49 -3.06,4.78 -7.22,8.99 -4.16,4.22 -9.04,7.22 v 0 q -3.67,8.99 -5.5,17.48 -1.83,8.49 -1.83,14.27 v 0 q 1.78,-4.44 4.27,-9.77 2.5,-5.33 5.72,-10.21 3.22,-4.89 6.99,-8 3.78,-3.1 7.88,-3.1 v 0 q 4.11,0 7,2.88 2.87999,2.89 2.87999,6.99 v 0 q 0,3.56 -1.82999,6.05 -1.83,2.5 -4.44,4 -2.61001,1.5 -5.22,2.22 -2.6,0.72 -4.27,0.72 v 0 q 0.11,0.89 0.67,3.22 0.55,2.33 1.61,4.88 1.05,2.56 2.59999,4.39 1.56001,1.83 3.78001,1.83 v 0 q 3.21999,0 6.09999,-2.44 2.89,-2.44 5.5,-6.5 2.61001,-4.05 4.83,-9.15 v 0 l 1.11,1.11 q -1.56,5.44 -4.77999,10.26 -3.22001,4.83 -7.16,7.89 -3.94,3.05 -7.82,3.05 z m -16.21001,-46.51 v 0 q 5.11,-4.11 8.94,-9.32 3.83001,-5.22 5.94,-10.05 2.11,-4.83 2.11,-7.6 v 0 q 0,-0.56 -0.06,-0.78 -0.06,-0.22 -0.28,-0.22 v 0 q -1.11,0 -3.83,3.88 -2.72,3.89 -6.16,10.27 -3.44,6.38 -6.66,13.82 z m 116.55,51.95 v 0 q -2.44,0 -5.66,-2.89 -3.22,-2.88 -6.83,-7.66 -3.6,-4.77 -7.1,-10.38 -3.5,-5.6 -6.44,-11.15 -2.94,-5.55 -4.94,-9.88 v 0 l -10.76,34.85 q -0.78,2.56 -2.45,3.61 -1.66,1.06 -3.6,1.28 -1.95,0.22 -3.83,0.22 v 0 q 1.44,-3.11 2.94,-7.1 1.5,-4 3.55,-9.66 2.05,-5.66 4.83,-13.77 2.77,-8.1 6.6,-19.37 3.83,-11.26 9.05,-26.47 v 0 q 0.33,-0.89 0.89,-2.5 0.55,-1.61 0.55,-2.94 v 0 q 0,-1.22 -0.55,-1.94 -0.56,-0.72 -2.11,-0.72 v 0 q -2.66,0 -5.16,2.16 -2.5,2.17 -4.44,5.5 -1.94,3.33 -3.05,6.88 -1.11,3.55 -1.11,6.33 v 0 q 0,2.11 0.55,3.77 v 0 q -3.66,0 -5.16,-1.83 -1.5,-1.83 -1.5,-4.5 v 0 q 0,-3.77 2.22,-7.54 2.22,-3.78 5.72,-6.94 3.49,-3.17 7.32,-5.05 3.83,-1.89 6.94,-1.89 v 0 q 3,0 4.05,1.67 1.06,1.66 1.06,3.66 v 0 q 0,1.22 -0.28,2.44 -0.28,1.22 -0.61,2.33 v 0 l -9.33,30.19 q 1.56,-2.22 4.06,-4.1 2.49,-1.89 5.49,-4.33 v 0 q 5,-4 10.71,-9.33 5.72,-5.32 10.94,-11.21 5.21,-5.88 8.65,-11.32 v 0 q 0.56,0.67 0.78,2.33 0.22,1.67 0.22,2.55 v 0 q 0,3.45 -2.83,7.55 -2.83,4.11 -7.38,8.49 -4.55,4.39 -9.99,8.66 -5.44,4.28 -10.71,8.05 -5.27,3.77 -9.49,6.55 v 0 q 3.33,5.66 6.49,10.77 3.17,5.1 6.88,9.99 3.72,4.88 8.72,9.99 4.99,5.1 12.1,10.98 v 0 q -0.77999,1.45 -2.45,2.56 -1.66,1.11 -3.55,1.11 z m 15.88,-4.44 v 0 q -3.45,0 -5.83,-2.28 -2.39,-2.27 -2.39,-6.94 v 0 q 0,-3.99 1.78,-8.6 1.77,-4.6 4.88,-9.1 3.11,-4.5 7.05,-8.21 3.94,-3.72 8.32,-5.94 4.39,-2.22 8.72,-2.22 v 0 q 4.33,0 7.21,2.27 2.89,2.28 2.89,6.05 v 0 q 0,2.78 -1.5,3.78 -1.5,1 -3.94,1 v 0 q 0.22,-0.89 0.39,-1.95 0.17,-1.05 0.17,-1.94 v 0 q 0,-2.55 -1.23,-4.38 -1.22,-1.84 -4.21,-1.84 v 0 q -3.11,0 -6.33,2.17 -3.22,2.16 -6.22,5.77 -2.99,3.61 -5.32,7.83 -2.34,4.21 -3.67,8.32 -1.33,4.11 -1.33,7.33 v 0 q 0,4.33 3,4.33 v 0 q 2.55,0 5.55,-2.39 2.99,-2.39 6.16,-6.11 3.16,-3.71 6.05,-7.71 2.88,-4 5.1,-7.33 v 0 q 0.45,-0.66 0.56,-0.66 v 0 q 0.66001,0.11 1.72001,0.44 1.05,0.34 1.82999,0.89 0.78,0.56 0.78,1.44 v 0 q 0,1 -1,2.72 -1,1.72 -2.22,3.94 -1.22,2.22 -2.22,4.5 -1,2.27 -1,4.27 v 0 q 0,1.67 0.89,3.28 0.89,1.61 2.88,1.61 v 0 q 3,0 7.88,-4.39 4.89,-4.38 9.88,-13.15 v 0 l 1.11,1.11 q -2.33,5.99 -5.99,10.54 -3.66,4.55 -7.83,7.11 -4.16,2.55 -8.15,2.55 v 0 q -4.11,0 -6.05,-2.44 -1.95,-2.44 -1.95,-5.33 v 0 q 0,-0.67 0.11,-1.5 0.12,-0.83 0.23,-1.72 v 0 q -4.78,6.44 -8.72,9.66 -3.94,3.22 -8.04,3.22 z m 54.72,0.44 v 0 q -5.22,0 -8.27,-2.27 -3.05,-2.28 -4.33,-5.61 -1.27999,-3.33 -1.27999,-6.66 v 0 q 0,-3.33 0.88999,-5.11 0.89,-1.77 2.17001,-2.66 1.26999,-0.89 2.44,-1.33 1.16,-0.45 1.61,-0.89 v 0 q 3.33,-3.66 6.1,-7.66 2.78,-3.99 4.89,-8.43 v 0 -1.34 q 0,-4.1 1.38,-5.82 1.39,-1.72 2.95,-1.72 v 0 q 0.88,0 1.32999,0.44 0.44,0.44 0.44,1 v 0 q 0,0.55 -0.32999,1.77 -0.33,1.23 -0.33,3.11 v 0 q 0,3.67 1.44,7.94 1.44,4.27 2.88,8.99 1.45,4.72 1.45,9.82 v 0 q 0,1.45 -0.17001,2.83 -0.17,1.39 -0.5,2.61 v 0 q 3.89,-0.66 7.33,-3.49 3.44,-2.83 6.66,-9.05 v 0 l 1,1.11 q -2.11,6.1 -6.32999,9.27 -4.22001,3.16 -9.21,3.94 v 0 q -1.78,4.77 -5.61,6.99 -3.83,2.22 -8.60001,2.22 z m 0.22,-3.88 v 0 q 1.33,0 3.55,-0.89 2.22001,-0.89 3.44,-4.55 v 0 q -4.66,-0.89 -8.27,-3.67 -3.6,-2.77 -5.37999,-5.55 v 0 q -2.44,0.12 -2.44,3.89 v 0 q 0,4 2.37999,7.38 2.39,3.39 6.72,3.39 z m 7.55,-7.22 v 0 q 0.22001,-1.11 0.33,-2.33 0.11,-1.22 0.11,-2.89 v 0 q 0,-5.21 -1.27,-10.37 -1.27999,-5.17 -2.17,-9.72 v 0 q -2.55,4.22 -5.38,8.05 -2.82999,3.83 -5.39,6.38 v 0 q 1.67001,3.56 5.17001,6.66 3.49,3.11 8.59999,4.22 z m 28.08,8.77 v 0 q -4.77,0 -6.83,-3.27 -2.05,-3.28 -2.05,-8.16 v 0 q 0,-5.33 2,-12.66 2,-7.32 5.27,-15.43 3.28,-8.1 7.16,-15.81 3.89,-7.72 7.77,-14.04 3.89,-6.33 7.16001,-10.11 3.28,-3.77 5.16,-3.77 v 0 q 1.22,0 2,1.39 0.77999,1.39 1.22,3.33 0.45,1.94 0.45,3.49 v 0 q 0,3 -1.5,7.83 -1.5,4.83 -4.22,10.77 -2.72,5.94 -6.44001,11.98 -3.72,6.05 -8.1,11.6 -4.39,5.55 -9.27,9.55 v 0 q -0.67,3 -1.06,5.83 -0.38,2.83 -0.38,5.38 v 0 q 0,4.33 1.22001,6.44 1.22,2.11 3.66,2.11 v 0 q 3,0 5.94,-2.67 2.94,-2.66 5.55,-6.71 2.61,-4.05 4.49,-8.38 v 0 l 1.67,0.89 q -4.44,9.43 -9.66,14.93 -5.21,5.49 -11.21001,5.49 z m 0.78,-27.08 v 0 q 3.88,-3.89 7.55,-8.94 3.66,-5.05 6.82,-10.49 3.17,-5.44 5.61001,-10.54 2.43999,-5.11 3.76999,-9.16 1.33,-4.05 1.33,-6.27 v 0 q 0,-1.11 -0.27,-1.45 -0.28,-0.33 -0.5,-0.33 v 0 q -0.89,0 -3.06,2.83 -2.16,2.83 -5.05,7.61 -2.88,4.77 -5.88,10.87 -3,6.11 -5.72,12.77 -2.71,6.66 -4.6,13.1 z"
           id="path8171-4" />
        <path
           style="fill:none;stroke:#000000;stroke-width:3.17096;stroke-linecap:butt;stroke-linejoin:miter;stroke-miterlimit:4;stroke-dasharray:none;stroke-opacity:1"
           d="m 112.22678,-31.796815 c -0.0863,-1.62612 -0.17272,-3.253289 -0.90638,-4.849569 -0.73366,-1.59628 -2.11547,-3.161685 -4.36173,-3.864212 -2.24625,-0.702527 -5.35696,-0.541074 -9.326938,1.960615 -3.969974,2.501689 -8.798264,7.343564 -12.16213,12.019595 -3.363865,4.676032 -5.263098,9.18573 -6.398679,12.421194 -1.135581,3.235464 -1.507568,5.1964034 -1.275698,7.1513262 0.231871,1.9549228 1.066932,3.9034032 2.614932,4.6593937 1.548001,0.7559906 3.80868,0.3208475 6.245053,-0.9434796 2.436373,-1.264327 5.049099,-3.357891 8.748871,-7.3442283 3.699771,-3.986337 8.486799,-9.865654 10.933789,-12.717983 2.44699,-2.852329 2.55313,-2.67873 1.40996,-0.300647 -1.14317,2.378082 -3.53474,6.96144 -4.63622,10.240224 -1.10149,3.278784 -0.91319,5.2522808 0.0799,6.7650019 0.99308,1.5127211 2.78987,2.5650617 4.89849,2.5823084 2.10861,0.017247 4.52974,-0.9997013 7.09868,-3.028444 2.56895,-2.0287427 5.28623,-5.0695373 7.89126,-8.6164493 2.60504,-3.546912 5.09795,-7.60016 7.71967,-13.256347 2.62171,-5.656187 5.37228,-12.91558 8.71155,-19.810757 3.33926,-6.895177 7.26719,-13.425887 6.14235,-10.625183 -1.12484,2.800704 -7.30244,14.932729 -11.13271,23.38104 -3.83027,8.44831 -5.31322,13.212674 -6.02913,17.597373 -0.7159,4.3847 -0.66496,8.3893548 0.10393,11.0898552 0.7689,2.7005005 2.25475,4.0968968 5.0572,4.3978463 2.80246,0.3009495 6.92178,-0.4924248 10.14462,-1.8966446 3.22284,-1.4042198 5.54991,-3.4193642 7.57091,-5.5762519 2.021,-2.156888 3.73614,-4.45575 5.45985,-7.265841 1.72372,-2.81009 3.4561,-6.131624 5.56988,-11.501271 2.11378,-5.369647 4.60896,-12.787621 5.77972,-16.427379 1.17075,-3.639758 1.01681,-3.500648 0.60229,-2.416379 -0.41452,1.084269 -1.08937,3.11305 -0.83813,4.842471 0.25125,1.729422 1.42751,3.158988 3.01513,4.533421 1.58762,1.374434 3.58633,2.694047 4.81305,4.290072 1.22673,1.596025 1.68233,3.468048 1.40497,5.968184 -0.27736,2.500135 -1.28721,5.62895 -2.19191,8.359451 -0.9047,2.730501 -1.70427,5.062721 -2.2872,7.277388 -0.58293,2.214667 -0.9493,4.3115747 -0.84588,5.6750209 0.10341,1.3634463 0.67552,1.9931946 1.83594,2.4135975 1.16041,0.4204029 2.90898,0.6323758 4.61893,0.4438885 1.70994,-0.1884873 3.38177,-0.7770989 5.39473,-1.9244986 2.01296,-1.1473997 4.36746,-2.8536648 6.70035,-5.0267503 2.33289,-2.173086 4.64443,-4.813204 7.8214,-9.638428 3.17697,-4.825224 7.2195,-11.83581 8.96574,-15.388035 1.74623,-3.552224 1.19485,-3.645966 -0.62931,-0.225098 -1.82417,3.420868 -4.91976,10.356079 -6.55295,15.177 -1.6332,4.820921 -1.80415,7.527082 -1.68084,9.737418 0.12331,2.2103352 0.54053,3.9246051 1.72674,5.0997582 1.18621,1.1751531 3.1405,1.8119734 5.36142,1.7397187 2.22092,-0.072255 4.70905,-0.8529976 7.03423,-2.1596491 2.32518,-1.3066514 4.48795,-3.1393373 7.35842,-6.6470358 2.87047,-3.507699 6.44889,-8.690697 9.20232,-12.755859 2.75344,-4.065163 4.6819,-7.012514 6.96232,-9.201344 2.28042,-2.18883 4.91227,-3.618695 7.22437,-4.342022 2.3121,-0.723327 4.30381,-0.740294 5.70879,-0.283119 1.40497,0.457175 2.22329,1.387427 2.51986,2.639356 0.29657,1.251929 0.0724,2.825758 -0.57559,4.429718 -0.64803,1.603959 -1.71994,3.238654 -2.07268,4.137892 -0.35275,0.899237 0.0123,1.062722 0.69061,-0.170477 0.67832,-1.233198 1.67133,-3.863089 1.8176,-5.946076 0.14627,-2.082986 -0.55495,-3.619729 -2.35439,-4.375426 -1.79943,-0.755697 -4.6975,-0.729131 -7.94303,1.022669 -3.24553,1.7518 -6.83755,5.228844 -9.10325,8.077339 -2.2657,2.848495 -3.20487,5.067937 -4.14922,7.523643 -0.94435,2.455707 -1.89389,5.147584 -2.13665,8.158211 -0.24275,3.010627 0.22091,6.3394569 1.32566,8.6932139 1.10475,2.3537569 2.84964,3.7326817 5.422,4.216912 2.57236,0.4842303 5.9724,0.074738 9.01556,-0.8898278 3.04316,-0.9645655 5.72997,-2.4841212 8.48682,-4.8847001 2.75686,-2.4005789 5.58415,-5.682442 8.63313,-11.387774 3.04897,-5.705332 6.31976,-13.834564 10.94465,-23.696216 4.6249,-9.861652 10.60388,-21.455598 14.40084,-27.810044 3.79696,-6.354447 5.41149,-7.46887 6.71754,-7.660078 1.30606,-0.191208 2.30271,0.539823 2.52615,2.388807 0.22343,1.848984 -0.32508,4.815955 -1.49271,7.963562 -1.16763,3.147606 -2.95433,6.476282 -5.1743,9.535054 -2.21998,3.058773 -4.87339,5.847987 -7.30787,7.914322 -2.43447,2.066335 -4.65033,3.41 -6.4142,4.825803 -1.76387,1.415803 -3.07542,2.903512 -4.66716,6.371881 -1.59174,3.468369 -3.46355,8.916886 -4.54906,13.201961 -1.08551,4.285075 -1.38484,7.406401 -1.50765,10.727675 -0.12282,3.321274 -0.0692,6.8423763 0.30807,8.3371519 0.37729,1.4947756 1.07815,0.9643572 3.03368,-2.5976958 1.95553,-3.5620531 5.16609,-10.1562751 8.06679,-15.2006521 2.90071,-5.044376 5.49149,-8.538666 8.26001,-10.718814 2.76851,-2.180148 5.71398,-3.0458 8.36853,-2.887365 2.65455,0.158434 5.01762,1.340162 5.89798,3.385538 0.88036,2.045376 0.27935,4.954234 -1.14194,7.278869 -1.42128,2.324634 -3.66315,4.065917 -5.95999,5.254761 -2.29684,1.188844 -4.6492,1.825328 -5.80205,2.255021 -1.15285,0.429694 -1.10576,0.651252 -0.6339,2.450529 0.47185,1.799277 1.3684,5.176256 2.65621,7.8125758 1.2878,2.6363197 2.96623,4.5321111 4.74824,5.4470186 1.78201,0.9149075 3.66758,0.8500259 5.59483,0.1924993 1.92724,-0.6575267 3.89688,-1.9075714 5.92774,-3.9563771 2.03085,-2.0488057 4.12332,-4.8967096 5.54083,-7.4066686 1.41751,-2.50996 2.16015,-4.682391 2.90298,-6.855407"
           id="path9507"
           inkscape:path-effect="#path-effect9509"
           inkscape:original-d="m 112.22678,-31.796815 c -0.0854,-1.626169 -0.17177,-3.253339 -0.25916,-4.881508 -1.38081,-1.564401 -2.76263,-3.129803 -4.14544,-4.696204 -3.10971,0.162453 -6.22042,0.323906 -9.332129,0.484359 -4.827291,4.842875 -9.655582,9.684749 -14.484873,14.525624 -1.898234,4.510698 -3.797467,9.020396 -5.697701,13.529094 -0.370987,1.96194 -0.742973,3.9228793 -1.11596,5.8828193 0.836061,1.949481 1.671123,3.897961 2.505184,5.845442 2.261678,-0.434143 4.522357,-0.869286 6.782035,-1.305429 2.613726,-2.092564 5.226452,-4.186128 7.838178,-6.280692 4.78803,-5.8783183 9.575056,-11.7576373 14.361086,-17.6379553 0.10714,0.1746 0.21328,0.348199 0.31842,0.520799 -2.39057,4.584361 -4.78213,9.167721 -7.1747,13.750082 0.1893,1.974496 0.3776,3.9479933 0.5649,5.9204893 1.79779,1.05334 3.59458,2.105681 5.39037,3.157021 2.42213,-1.015949 4.84326,-2.032898 7.2634,-3.050848 2.71829,-3.039798 5.43557,-6.0805963 8.15186,-9.1223953 2.4939,-4.052245 4.98681,-8.10549 7.47871,-12.159735 2.75157,-7.258394 5.50214,-14.517787 8.25171,-21.778181 3.92893,-6.52971 7.85686,-13.06042 11.78379,-19.59213 -6.17659,12.133023 -12.35419,24.265045 -18.53278,36.396068 -1.48195,4.765362 -2.96491,9.529724 -4.44886,14.293086 0.0519,4.005654 0.10287,8.0103083 0.15281,12.0139623 1.48684,1.397393 2.97269,2.793786 4.45753,4.189179 4.12032,-0.792374 8.23964,-1.585749 12.35796,-2.380123 2.32807,-2.014147 4.65513,-4.029295 6.9812,-6.0454423 1.71613,-2.297858 3.43127,-4.596717 5.1454,-6.896575 1.73338,-3.320536 3.46575,-6.642072 5.19713,-9.964608 2.49619,-7.416976 4.99137,-14.834952 7.48556,-22.253928 -0.15293,0.140106 -0.30687,0.279213 -0.4618,0.417319 -0.67386,2.029784 -1.34871,4.058567 -2.02457,6.086351 1.17726,1.43057 2.35351,2.86014 3.52877,4.28871 1.99972,1.320617 3.99843,2.640233 5.99615,3.95885 0.4566,1.873022 0.91221,3.745043 1.36681,5.616065 -1.00884,3.129812 -2.01869,6.258625 -3.02953,9.386437 -0.79856,2.333217 -1.59813,4.665435 -2.39869,6.996652 -0.36536,2.097906 -0.73173,4.1948123 -1.09909,6.2907173 0.5731,0.630745 1.14521,1.26049 1.71631,1.889235 1.74958,0.212974 3.49815,0.424947 5.24573,0.635921 1.67283,-0.587612 3.34466,-1.176223 5.01549,-1.765835 2.35549,-1.705261 4.70999,-3.411523 7.06348,-5.1187853 2.31253,-2.639114 4.62407,-5.279229 6.9346,-7.920343 4.04353,-7.009584 8.08607,-14.020167 12.1276,-21.031751 -0.55039,-0.09274 -1.10177,-0.186485 -1.65416,-0.281227 -3.09459,6.93621 -6.19018,13.871421 -9.28677,20.805631 -0.16995,2.707161 -0.3409,5.413322 -0.51285,8.118483 0.41822,1.7152693 0.83544,3.4295393 1.25166,5.1428083 1.95529,0.637821 3.90958,1.274641 5.86287,1.910461 2.48913,-0.779743 4.97726,-1.560486 7.46439,-2.342229 2.16376,-1.831682 4.32653,-3.664365 6.48829,-5.4980473 3.57942,-5.182 7.15783,-10.365001 10.73525,-15.549001 1.92947,-2.946354 3.85793,-5.893709 5.7854,-8.842063 2.63286,-1.428869 5.26471,-2.858737 7.89557,-4.289606 1.9927,-0.01597 3.98441,-0.03293 5.97511,-0.0509 0.81931,0.93125 1.63763,1.861499 2.45494,2.790749 -0.22312,1.574829 -0.44725,3.148657 -0.67237,4.721486 -1.0709,1.635692 -2.14281,3.270384 -3.21571,4.904076 0.36604,0.164485 0.73108,0.32797 1.09512,0.490455 0.99401,-2.628888 1.98703,-5.258777 2.97904,-7.889665 -0.70023,-1.535745 -1.40145,-3.072491 -2.10368,-4.610236 -2.89708,0.02757 -5.79515,0.05413 -8.69423,0.0797 -3.59101,3.478041 -7.18303,6.955083 -10.77604,10.431124 -0.93817,2.220444 -1.87733,4.439888 -2.8175,6.658332 -0.94854,2.69288 -1.89807,5.384759 -2.84861,8.075639 0.46466,3.329831 0.92832,6.6586613 1.39098,9.9864923 1.7459,1.379928 3.49079,2.758856 5.23469,4.13678401 3.40105,-0.40849301 6.80109,-0.81798701 10.20014,-1.22848001 2.68781,-1.518555 5.37462,-3.038111 8.06043,-4.558667 2.8283,-3.280866 5.65559,-6.5627323 8.48189,-9.8455983 3.27179,-8.128231 6.54258,-16.257463 9.81237,-24.387694 5.97998,-11.592943 11.95897,-23.186886 17.93695,-34.781829 1.61553,-1.113424 3.23006,-2.227847 4.84359,-3.343271 0.99766,0.732034 1.99431,1.463069 2.98997,2.193103 -0.54751,2.967971 -1.09602,5.934942 -1.64553,8.900913 -1.7857,3.329672 -3.57241,6.658345 -5.36011,9.986017 -2.65241,2.79021 -5.30583,5.579421 -7.96024,8.367631 -2.21485,1.344663 -4.43071,2.688325 -6.64756,4.030988 -1.31054,1.488705 -2.62209,2.976411 -3.93463,4.463116 -1.8708,5.449515 -3.74261,10.89803 -5.61541,16.345545 -0.29833,3.122327 -0.59766,6.243653 -0.89799,9.36398 0.0546,3.522102 0.10819,7.0432043 0.16078,10.5633063 0.70186,-0.529419 1.40272,-1.059837 2.10258,-1.591256 3.21155,-6.5932203 6.42211,-13.1874403 9.63166,-19.7826603 2.59178,-3.493287 5.18257,-6.987574 7.77235,-10.482861 2.94647,-0.864653 5.89194,-1.730305 8.83641,-2.596958 2.36408,1.18273 4.72715,2.36446 7.08923,3.54519 -0.60001,2.909859 -1.20101,5.818719 -1.80302,8.726578 -2.24086,1.74228 -4.48273,3.48356 -6.72559,5.22384 -2.35136,0.637485 -4.70372,1.273969 -7.05708,1.909454 0.0481,0.222556 0.0952,0.444113 0.14128,0.664669 0.89755,3.377979 1.7941,6.754958 2.68965,10.1309363 1.67943,1.896788 3.35787,3.792576 5.0353,5.687364 1.88656,-0.06388 3.77213,-0.128762 5.65669,-0.194644 1.97063,-1.249041 3.94027,-2.499083 5.9089,-3.750125 2.09347,-2.846907 4.18593,-5.6948143 6.2774,-8.5437213 0.74363,-2.171428 1.48627,-4.343857 2.2279,-6.517285" />
      </g>
    </g>
  </g>
</svg>
